<?xml version="1.0" encoding="UTF-8"?>
<!DOCTYPE svg PUBLIC "-//W3C//DTD SVG 1.1//EN" "http://www.w3.org/Graphics/SVG/1.1/DTD/svg11.dtd">
<svg xmlns="http://www.w3.org/2000/svg" version="1.1" width="897px" height="278px" style="shape-rendering:geometricPrecision; text-rendering:geometricPrecision; image-rendering:optimizeQuality; fill-rule:evenodd; clip-rule:evenodd" xmlns:xlink="http://www.w3.org/1999/xlink">
<g><path style="opacity:0.337" fill="#717171" d="M 85.5,67.5 C 84.1667,69.5 82.5,71.1667 80.5,72.5C 81.1667,69.8333 82.8333,68.1667 85.5,67.5 Z"/></g>
<g><path style="opacity:0.004" fill="#000000" d="M 399.5,83.5 C 400.833,84.1667 400.833,84.1667 399.5,83.5 Z"/></g>
<g><path style="opacity:0.004" fill="#000000" d="M 543.5,84.5 C 542.833,83.1667 542.833,83.1667 543.5,84.5 Z"/></g>
<g><path style="opacity:0.998" fill="#141414" d="M 269.5,110.5 C 269.068,109.29 268.401,108.29 267.5,107.5C 268.526,101.703 266.192,98.87 260.5,99C 259.069,99.4652 257.903,100.299 257,101.5C 256.333,104.833 256.333,108.167 257,111.5C 258.752,114.672 260.752,117.672 263,120.5C 271.538,126.369 277.872,134.036 282,143.5C 284.938,170.901 273.438,180.068 247.5,171C 245.719,168.763 243.719,166.763 241.5,165C 241.833,164.667 242.167,164.333 242.5,164C 240.763,158.677 240.096,153.177 240.5,147.5C 245.167,146.167 249.833,146.167 254.5,147.5C 253.86,153.341 256.026,157.675 261,160.5C 265.117,158.942 267.283,155.942 267.5,151.5C 266.809,147.786 265.309,144.452 263,141.5C 254.249,134.751 246.916,126.751 241,117.5C 241.077,114.348 240.911,111.015 240.5,107.5C 240.639,102.357 241.472,97.3572 243,92.5C 246.034,90.1236 249.034,87.7903 252,85.5C 273.203,80.5444 283.37,88.8777 282.5,110.5C 278.167,110.5 273.833,110.5 269.5,110.5 Z"/></g>
<g><path style="opacity:0.993" fill="#121212" d="M 649.5,84.5 C 662.541,85.4577 675.541,85.791 688.5,85.5C 689.253,89.8369 688.92,94.1702 687.5,98.5C 679.882,99.3014 672.216,99.8014 664.5,100C 664.179,107.061 664.512,114.227 665.5,121.5C 667.564,121.687 669.564,122.187 671.5,123C 670.833,123.333 670.167,123.667 669.5,124C 673.43,124.041 677.263,124.207 681,124.5C 681.667,128.833 681.667,133.167 681,137.5C 675.583,138.309 670.083,138.809 664.5,139C 666.686,139.604 666.852,140.77 665,142.5C 664.832,152.849 664.332,163.183 663.5,173.5C 658.621,173.687 653.621,173.687 648.5,173.5C 648.175,143.76 648.508,114.093 649.5,84.5 Z"/></g>
<g><path style="opacity:0.995" fill="#181818" d="M 753.5,84.5 C 755.942,84.1192 756.609,84.7859 755.5,86.5C 756.323,109.791 756.823,133.124 757,156.5C 757.333,156.167 757.667,155.833 758,155.5C 758.465,156.931 759.299,158.097 760.5,159C 767.562,159.156 774.562,159.323 781.5,159.5C 781.666,163.514 781.499,167.514 781,171.5C 779.934,173.099 778.434,174.099 776.5,174.5C 764.814,173.651 753.148,173.318 741.5,173.5C 740.5,144.174 740.167,114.841 740.5,85.5C 745.032,85.8182 749.366,85.4849 753.5,84.5 Z"/></g>
<g><path style="opacity:0.998" fill="#191919" d="M 289.5,84.5 C 294.42,85.4366 299.254,85.7699 304,85.5C 304.833,114.839 304.667,144.172 303.5,173.5C 298.681,173.631 293.681,173.631 288.5,173.5C 288.175,143.76 288.508,114.093 289.5,84.5 Z"/></g>
<g><path style="opacity:0.996" fill="#121212" d="M 378.5,159.5 C 383.43,160.927 386.263,158.927 387,153.5C 387.817,131.636 387.65,109.803 386.5,88C 386.645,87.228 386.978,86.5613 387.5,86C 392.489,85.5007 397.489,85.3341 402.5,85.5C 402.386,105.368 402.72,125.368 403.5,145.5C 403.151,151.233 402.317,156.9 401,162.5C 397.362,170.916 390.862,175.249 381.5,175.5C 374.883,175.017 368.883,172.85 363.5,169C 364.345,167.442 363.679,166.442 361.5,166C 362.634,164.984 362.301,164.317 360.5,164C 360.833,163.667 361.167,163.333 361.5,163C 359.438,160.932 358.272,158.432 358,155.5C 358.812,132.53 359.478,109.53 360,86.5C 364.468,85.8065 368.968,85.1398 373.5,84.5C 374.086,84.7093 374.586,85.0426 375,85.5C 375.817,107.364 375.65,129.197 374.5,151C 375.127,153.135 375.627,155.302 376,157.5C 376.708,158.381 377.542,159.047 378.5,159.5 Z"/></g>
<g><path style="opacity:0.997" fill="#151515" d="M 452.5,165.5 C 452.401,168.237 452.735,170.904 453.5,173.5C 449.644,173.293 445.644,173.626 441.5,174.5C 436.161,173.159 434.661,170.159 437,165.5C 437.667,158.833 437.667,152.167 437,145.5C 435.586,139.37 431.753,137.204 425.5,139C 429.511,139.166 430.011,140 427,141.5C 426.667,141.167 426.333,140.833 426,140.5C 425.667,151.5 425.333,162.5 425,173.5C 420.698,173.404 416.365,173.738 412,174.5C 411,173.833 410,173.167 409,172.5C 409.432,143.522 409.599,114.522 409.5,85.5C 419.506,85.3335 429.506,85.5002 439.5,86C 446.784,87.6177 450.951,92.1177 452,99.5C 452.667,106.5 452.667,113.5 452,120.5C 450.657,124.51 448.491,128.01 445.5,131C 448.802,133.317 450.969,136.483 452,140.5C 452.5,148.827 452.666,157.16 452.5,165.5 Z M 436.5,104.5 C 437.942,110.204 437.775,115.87 436,121.5C 435.333,122.167 434.667,122.833 434,123.5C 431.599,122.398 429.099,122.231 426.5,123C 428.167,123.333 429.833,123.667 431.5,124C 430.5,124.167 429.5,124.333 428.5,124.5C 426.97,124.36 425.97,123.693 425.5,122.5C 424.892,115.052 425.559,107.885 427.5,101C 426.833,100.667 426.167,100.333 425.5,100C 427.833,99.3333 430.167,99.3333 432.5,100C 434.751,100.748 436.084,102.248 436.5,104.5 Z"/></g>
<g><path style="opacity:0.995" fill="#131313" d="M 499.5,95.5 C 498.655,96.6715 497.989,98.0048 497.5,99.5C 490.159,99.3337 482.826,99.5003 475.5,100C 476.167,100.333 476.833,100.667 477.5,101C 476.224,103.724 475.558,106.724 475.5,110C 475.667,112.833 475.833,115.667 476,118.5C 477.648,119.717 479.481,120.55 481.5,121C 485.555,121.232 489.555,121.732 493.5,122.5C 494.8,127.05 494.8,131.55 493.5,136C 487.5,136.333 481.5,136.667 475.5,137C 476.167,137.333 476.833,137.667 477.5,138C 476.22,140.894 475.554,144.061 475.5,147.5C 475.554,150.939 476.22,154.106 477.5,157C 484.326,159.648 491.326,160.314 498.5,159C 499.317,161.372 500.65,161.872 502.5,160.5C 502.5,164.5 502.5,168.5 502.5,172.5C 500.418,172.472 498.584,173.139 497,174.5C 485.72,173.206 474.386,173.206 463,174.5C 459.711,173.368 458.211,171.035 458.5,167.5C 458.667,166.167 458.833,164.833 459,163.5C 459.333,165.833 459.667,168.167 460,170.5C 460.167,141.828 460.667,113.161 461.5,84.5C 474.117,85.4806 486.783,85.8139 499.5,85.5C 499.5,88.8333 499.5,92.1667 499.5,95.5 Z"/></g>
<g><path style="opacity:0.996" fill="#141414" d="M 543.5,84.5 C 544.239,84.369 544.906,84.5357 545.5,85C 545.187,89.3737 545.187,93.7071 545.5,98C 537.8,117.593 529.8,137.093 521.5,156.5C 528.48,159.51 535.647,160.177 543,158.5C 544.764,162.93 545.598,167.43 545.5,172C 544.953,172.925 544.287,173.758 543.5,174.5C 530.557,173.222 517.89,173.222 505.5,174.5C 504.914,174.291 504.414,173.957 504,173.5C 503.501,169.179 503.334,164.846 503.5,160.5C 504.791,159.458 504.791,158.292 503.5,157C 506.022,155.641 507.355,153.474 507.5,150.5C 510.783,142.891 514.449,134.557 518.5,125.5C 517.524,123.877 518.024,122.543 520,121.5C 521.622,118.678 522.789,115.678 523.5,112.5C 525.121,109.259 526.787,105.925 528.5,102.5C 527.833,102.167 527.167,101.833 526.5,101.5C 526.709,100.914 527.043,100.414 527.5,100C 520.174,99.5003 512.841,99.3337 505.5,99.5C 505.5,94.8333 505.5,90.1667 505.5,85.5C 518.344,85.8287 531.011,85.4954 543.5,84.5 Z"/></g>
<g><path style="opacity:0.997" fill="#0f0f0f" d="M 732.5,160.5 C 729.892,169.081 724.058,174.081 715,175.5C 697.213,175.541 688.713,166.541 689.5,148.5C 689.6,127.501 689.934,106.501 690.5,85.5C 695.099,85.8 699.599,85.4667 704,84.5C 705.757,85.1189 706.924,86.2856 707.5,88C 706.35,109.136 706.183,130.302 707,151.5C 707.667,153.5 708.333,155.5 709,157.5C 710.067,158.191 711.234,158.691 712.5,159C 709.937,159.763 709.937,160.263 712.5,160.5C 714.187,160.24 715.687,159.573 717,158.5C 717.173,137.594 717.673,116.76 718.5,96C 718.167,95 717.833,94 717.5,93C 718.274,90.595 718.774,88.095 719,85.5C 723.333,85.5 727.667,85.5 732,85.5C 732.5,110.498 732.667,135.498 732.5,160.5 Z"/></g>
<g><path style="opacity:0.997" fill="#191919" d="M 784.5,84.5 C 789.116,85.4333 793.616,85.7666 798,85.5C 798.172,108.739 798.672,131.906 799.5,155C 799.167,155.333 798.833,155.667 798.5,156C 800.167,157 801.833,158 803.5,159C 809.204,159.687 814.87,159.521 820.5,158.5C 820.946,164.021 820.446,169.355 819,174.5C 807.177,173.655 795.344,173.321 783.5,173.5C 783.167,158.833 782.833,144.167 782.5,129.5C 782.516,114.279 783.183,99.2794 784.5,84.5 Z"/></g>
<g><path style="opacity:0.988" fill="#181818" d="M 124.5,56.5 C 123.636,57.6883 122.636,58.8549 121.5,60C 123.673,61.5531 124.34,63.3865 123.5,65.5C 121.72,69.7274 120.886,74.3941 121,79.5C 117.416,88.988 112.083,89.988 105,82.5C 103.761,76.9445 103.094,71.2778 103,65.5C 90.1076,71.2111 82.2742,80.8777 79.5,94.5C 88.5062,94.6664 97.5062,94.4998 106.5,94C 104.833,93.6667 103.167,93.3333 101.5,93C 105,92.8333 108.5,92.6667 112,92.5C 120.654,94.1373 130.154,94.804 140.5,94.5C 139.232,95.787 139.565,96.787 141.5,97.5C 142.246,98.7362 142.579,100.07 142.5,101.5C 146.897,101.425 151.23,101.925 155.5,103C 150.5,103.333 145.5,103.667 140.5,104C 141.167,104.333 141.833,104.667 142.5,105C 141.167,106 139.833,107 138.5,108C 143.401,109.325 148.401,109.825 153.5,109.5C 153.737,110.791 153.404,111.791 152.5,112.5C 127.833,112.5 103.167,112.5 78.5,112.5C 78.2213,117.595 78.5546,122.595 79.5,127.5C 78.3121,128.684 77.1455,128.684 76,127.5C 75.6758,129.569 74.8425,129.902 73.5,128.5C 72.066,126.328 71.7326,124.161 72.5,122C 69.6064,119.18 70.2731,117.514 74.5,117C 73.5294,115.796 72.5294,115.296 71.5,115.5C 72.7059,113.484 72.7059,111.484 71.5,109.5C 69.2068,107.805 66.8734,107.138 64.5,107.5C 62.1459,105.754 61.1459,103.421 61.5,100.5C 60.2935,99.1196 60.6269,97.9529 62.5,97C 65.022,95.6591 67.6887,94.8257 70.5,94.5C 71.3463,85.9309 74.6796,78.5975 80.5,72.5C 82.5,71.1667 84.1667,69.5 85.5,67.5C 90.4219,62.7826 96.2553,59.4493 103,57.5C 104.854,55.9772 106.354,54.1438 107.5,52C 111.381,49.1192 115.381,49.1192 119.5,52C 121.692,53.0669 123.358,54.5669 124.5,56.5 Z"/></g>
<g><path style="opacity:0.302" fill="#6f6f6f" d="M 111.5,58.5 C 112.821,61.5982 113.488,65.0982 113.5,69C 113.167,72.5 112.833,76 112.5,79.5C 111.503,72.5316 111.17,65.5316 111.5,58.5 Z"/></g>
<g><path style="opacity:0.004" fill="#000000" d="M 313.5,94.5 C 312.833,93.1667 312.833,93.1667 313.5,94.5 Z"/></g>
<g><path style="opacity:0.004" fill="#000000" d="M 546.5,97.5 C 547.833,98.1667 547.833,98.1667 546.5,97.5 Z"/></g>
<g><path style="opacity:0.465" fill="#393939" d="M 436.5,104.5 C 436.084,102.248 434.751,100.748 432.5,100C 430.167,99.3333 427.833,99.3333 425.5,100C 426.167,100.333 426.833,100.667 427.5,101C 425.559,107.885 424.892,115.052 425.5,122.5C 424.82,114.432 424.153,106.265 423.5,98C 427.504,97.8555 431.504,98.1889 435.5,99C 437.632,100.62 437.965,102.454 436.5,104.5 Z"/></g>
<g><path style="opacity:0.027" fill="#cbcbcb" d="M 499.5,95.5 C 499.843,97.4832 499.176,98.8166 497.5,99.5C 497.989,98.0048 498.655,96.6715 499.5,95.5 Z"/></g>
<g><path style="opacity:0.008" fill="#d1d1d1" d="M 550.5,97.5 C 551.5,97.8333 552.167,98.5 552.5,99.5C 551.167,99.5 550.5,98.8333 550.5,97.5 Z"/></g>
<g><path style="opacity:0.997" fill="#141414" d="M 313.5,94.5 C 315.819,90.1809 319.152,86.8476 323.5,84.5C 324.167,84.8333 324.833,85.1667 325.5,85.5C 329.7,84.8625 333.866,84.1959 338,83.5C 344.972,85.4508 349.972,90.1175 353,97.5C 354.471,103.431 354.804,109.431 354,115.5C 349.263,116.469 344.43,116.803 339.5,116.5C 339.897,111.041 339.397,105.708 338,100.5C 333.906,97.5244 330.573,98.191 328,102.5C 327.833,111.167 327.667,119.833 327.5,128.5C 327.861,137.874 327.861,147.04 327.5,156C 329.633,157.899 332.133,159.065 335,159.5C 336.074,158.382 337.24,157.382 338.5,156.5C 339.454,150.896 339.788,145.229 339.5,139.5C 342.69,139.441 345.857,139.107 349,138.5C 351.034,138.354 352.701,139.02 354,140.5C 355.298,149.468 354.298,158.135 351,166.5C 342.985,174.585 333.485,176.752 322.5,173C 320,171.167 317.5,169.333 315,167.5C 313.978,163.593 312.478,159.926 310.5,156.5C 311.32,138.21 311.82,119.877 312,101.5C 312.44,99.1341 312.94,96.8008 313.5,94.5 Z"/></g>
<g><path style="opacity:0.114" fill="#858585" d="M 267.5,107.5 C 268.401,108.29 269.068,109.29 269.5,110.5C 267.952,110.179 267.285,109.179 267.5,107.5 Z"/></g>
<g><path style="opacity:0.004" fill="#000000" d="M 523.5,112.5 C 522.833,111.167 522.833,111.167 523.5,112.5 Z"/></g>
<g><path style="opacity:0.004" fill="#000000" d="M 682.5,126.5 C 683.634,128.966 683.801,131.633 683,134.5C 682.503,131.854 682.336,129.187 682.5,126.5 Z"/></g>
<g><path style="opacity:0.997" fill="#131313" d="M 554.5,147.5 C 555.906,147.027 556.573,146.027 556.5,144.5C 561.204,132.151 566.704,118.817 573,104.5C 573.494,102.866 573.66,101.199 573.5,99.5C 566.5,99.5 559.5,99.5 552.5,99.5C 552.167,98.5 551.5,97.8333 550.5,97.5C 550.192,93.6286 550.192,89.7952 550.5,86C 564.163,85.5001 577.829,85.3334 591.5,85.5C 591.666,90.1785 591.499,94.8452 591,99.5C 582.712,118.719 575.045,138.052 568,157.5C 568.333,157.167 568.667,156.833 569,156.5C 569.903,157.701 571.069,158.535 572.5,159C 578.084,159.806 583.584,159.639 589,158.5C 590.585,159.376 591.585,160.709 592,162.5C 592.667,161.167 593.333,161.167 594,162.5C 593.508,165.319 593.674,167.986 594.5,170.5C 595.867,167.534 596.867,164.367 597.5,161C 597.272,160.601 596.938,160.435 596.5,160.5C 596.5,159.833 596.5,159.167 596.5,158.5C 597.234,157.122 597.901,155.622 598.5,154C 598.272,153.601 597.938,153.435 597.5,153.5C 597.436,147.739 598.436,141.905 600.5,136C 600.167,135.667 599.833,135.333 599.5,135C 600.607,131.023 601.607,127.023 602.5,123C 601.978,122.439 601.645,121.772 601.5,121C 604.147,109.622 606.314,98.1218 608,86.5C 608.308,85.6919 608.808,85.0253 609.5,84.5C 615.697,85.8173 621.864,85.8173 628,84.5C 628.667,85.1667 629.333,85.8333 630,86.5C 632.862,102.661 635.362,118.661 637.5,134.5C 637.941,138.658 639.274,142.491 641.5,146C 640.833,146.333 640.167,146.667 639.5,147C 639.995,150.992 641.329,154.659 643.5,158C 642.692,158.308 642.025,158.808 641.5,159.5C 641.914,162.41 642.914,165.077 644.5,167.5C 643.894,169.709 643.227,171.876 642.5,174C 638.161,173.693 633.828,173.526 629.5,173.5C 627.922,169.688 626.756,165.688 626,161.5C 622.643,160.258 622.81,159.424 626.5,159C 621.167,158.333 615.833,158.333 610.5,159C 611.5,159.333 612.5,159.667 613.5,160C 612.272,160.779 611.272,161.779 610.5,163C 610.019,167.092 608.852,170.925 607,174.5C 604.063,173.368 601.063,173.368 598,174.5C 596.289,174.561 594.956,173.894 594,172.5C 592.559,173.26 591.059,173.926 589.5,174.5C 576.637,173.174 563.804,173.174 551,174.5C 549.39,169.345 549.057,164.012 550,158.5C 551.515,154.808 553.015,151.141 554.5,147.5 Z M 619.5,112.5 C 619.714,114.144 619.38,115.644 618.5,117C 619.909,120.134 620.909,123.301 621.5,126.5C 622.167,132.5 622.833,138.5 623.5,144.5C 619.818,144.665 616.152,144.499 612.5,144C 614.453,133.226 616.286,122.393 618,111.5C 618.383,112.056 618.883,112.389 619.5,112.5 Z"/></g>
<g><path style="opacity:0.467" fill="#4d4d4d" d="M 619.5,112.5 C 621.104,116.9 621.771,121.566 621.5,126.5C 620.909,123.301 619.909,120.134 618.5,117C 619.38,115.644 619.714,114.144 619.5,112.5 Z"/></g>
<g><path style="opacity:0.004" fill="#000000" d="M 337.5,141.5 C 338.598,142.601 338.765,143.934 338,145.5C 337.51,144.207 337.343,142.873 337.5,141.5 Z"/></g>
<g><path style="opacity:0.004" fill="#000000" d="M 733.5,141.5 C 734.651,146.65 734.817,151.984 734,157.5C 733.501,152.177 733.334,146.844 733.5,141.5 Z"/></g>
<g><path style="opacity:0.024" fill="#dfdfdf" d="M 254.5,147.5 C 249.833,146.167 245.167,146.167 240.5,147.5C 242.397,146.195 244.731,145.529 247.5,145.5C 250.269,145.529 252.603,146.195 254.5,147.5 Z"/></g>
<g><path style="opacity:0.051" fill="#b7b7b7" d="M 556.5,144.5 C 556.573,146.027 555.906,147.027 554.5,147.5C 554.427,145.973 555.094,144.973 556.5,144.5 Z"/></g>
<g><path style="opacity:0.992" fill="#161616" d="M 151.5,151.5 C 153.906,152.797 156.906,152.797 160.5,151.5C 160.369,150.761 160.536,150.094 161,149.5C 161.667,150.833 162.333,150.833 163,149.5C 163.333,146.167 163.667,142.833 164,139.5C 165.025,137.313 166.525,135.646 168.5,134.5C 175.754,131.448 182.754,131.948 189.5,136C 190.211,137.255 191.044,138.421 192,139.5C 194.965,170.683 197.799,201.349 200.5,231.5C 199.533,235.323 197.199,236.823 193.5,236C 191.119,225.574 186.119,216.574 178.5,209C 168.225,199.777 156.392,193.277 143,189.5C 140.373,193.919 137.873,198.419 135.5,203C 133.5,203.667 131.5,203.667 129.5,203C 125.85,201.555 122.183,200.555 118.5,200C 118.791,215.197 118.791,230.697 118.5,246.5C 117.5,246.833 116.833,247.5 116.5,248.5C 114.533,248.739 112.699,248.406 111,247.5C 110.833,231.823 110.333,216.156 109.5,200.5C 105.787,202.865 101.787,203.698 97.5,203C 96.3333,201.833 95.1667,200.667 94,199.5C 92.9811,196.128 91.4811,193.128 89.5,190.5C 84.0237,191.71 78.3571,193.544 72.5,196C 73.3402,197.666 72.8402,197.833 71,196.5C 70.7216,197.416 70.2216,198.082 69.5,198.5C 69.1667,197.167 68.8333,197.167 68.5,198.5C 66.2215,199.185 64.8882,200.185 64.5,201.5C 64.1667,200.167 63.8333,200.167 63.5,201.5C 60.8646,202.811 58.5313,204.478 56.5,206.5C 55.5,206.833 54.8333,207.5 54.5,208.5C 53.7611,208.369 53.0944,208.536 52.5,209C 44.4003,216.032 39.567,224.865 38,235.5C 36.3845,236.801 34.8845,236.801 33.5,235.5C 33.1667,234.5 32.5,233.833 31.5,233.5C 31.1815,228.071 32.1815,222.738 34.5,217.5C 36.6548,214.182 38.9881,211.015 41.5,208C 40.3534,190.198 40.1867,172.365 41,154.5C 41.8333,153.667 42.6667,152.833 43.5,152C 53.8333,151.667 64.1667,151.333 74.5,151C 74.9574,150.586 75.2907,150.086 75.5,149.5C 73.5333,146.988 73.2,144.321 74.5,141.5C 71.6558,136.878 69.8225,132.211 69,127.5C 68.918,122.495 68.918,117.495 69,112.5C 64.8517,111.508 61.685,109.175 59.5,105.5C 60.0276,103.664 60.6942,101.997 61.5,100.5C 61.1459,103.421 62.1459,105.754 64.5,107.5C 66.8734,107.138 69.2068,107.805 71.5,109.5C 72.7059,111.484 72.7059,113.484 71.5,115.5C 72.5294,115.296 73.5294,115.796 74.5,117C 70.2731,117.514 69.6064,119.18 72.5,122C 71.7326,124.161 72.066,126.328 73.5,128.5C 74.8425,129.902 75.6758,129.569 76,127.5C 77.1455,128.684 78.3121,128.684 79.5,127.5C 82.299,143.949 90.299,157.116 103.5,167C 112.715,170.9 120.881,170.067 128,164.5C 128.333,164.833 128.667,165.167 129,165.5C 131.674,164.018 134.174,161.685 136.5,158.5C 138.522,156.469 140.189,154.135 141.5,151.5C 144.014,148.636 145.68,145.302 146.5,141.5C 147.338,141.158 147.672,140.492 147.5,139.5C 148.404,138.791 148.737,137.791 148.5,136.5C 151.911,128.991 153.244,120.991 152.5,112.5C 153.404,111.791 153.737,110.791 153.5,109.5C 148.401,109.825 143.401,109.325 138.5,108C 139.833,107 141.167,106 142.5,105C 141.833,104.667 141.167,104.333 140.5,104C 145.5,103.667 150.5,103.333 155.5,103C 151.23,101.925 146.897,101.425 142.5,101.5C 142.579,100.07 142.246,98.7362 141.5,97.5C 139.565,96.787 139.232,95.787 140.5,94.5C 144.226,94.8226 147.893,94.4892 151.5,93.5C 151,92.5 150.5,91.5 150,90.5C 149.667,90.8333 149.333,91.1667 149,91.5C 147.638,83.3283 143.471,76.495 136.5,71C 132.532,68.2888 128.198,66.4555 123.5,65.5C 124.34,63.3865 123.673,61.5531 121.5,60C 122.636,58.8549 123.636,57.6883 124.5,56.5C 144.648,60.9861 156.981,73.6527 161.5,94.5C 163.741,95.0318 165.241,96.3651 166,98.5C 167.753,104.094 166.253,108.427 161.5,111.5C 161.607,125.739 158.274,139.072 151.5,151.5 Z M 174.5,140.5 C 177.807,140.063 180.807,140.73 183.5,142.5C 182.009,144.012 180.176,145.012 178,145.5C 176.301,144.594 174.467,144.261 172.5,144.5C 172.527,142.801 173.194,141.467 174.5,140.5 Z M 152.5,112.5 C 153.244,120.991 151.911,128.991 148.5,136.5C 148.737,137.791 148.404,138.791 147.5,139.5C 147.672,140.492 147.338,141.158 146.5,141.5C 145.68,145.302 144.014,148.636 141.5,151.5C 140.189,154.135 138.522,156.469 136.5,158.5C 134.174,161.685 131.674,164.018 129,165.5C 128.667,165.167 128.333,164.833 128,164.5C 120.881,170.067 112.715,170.9 103.5,167C 90.299,157.116 82.299,143.949 79.5,127.5C 78.5546,122.595 78.2213,117.595 78.5,112.5C 103.167,112.5 127.833,112.5 152.5,112.5 Z M 171.5,152.5 C 176.236,152.814 180.736,153.814 185,155.5C 185.802,160.419 185.635,165.252 184.5,170C 185.573,171.313 186.24,172.813 186.5,174.5C 185.393,176.881 184.727,179.381 184.5,182C 185.923,186.742 187.256,191.576 188.5,196.5C 188.46,198.429 188.127,200.262 187.5,202C 189.036,203.599 189.536,205.433 189,207.5C 183.367,201.102 176.867,195.768 169.5,191.5C 169.167,190.167 168.833,188.833 168.5,187.5C 169.381,177.505 170.214,167.505 171,157.5C 171.772,156.151 172.939,155.318 174.5,155C 172.881,154.764 171.881,153.931 171.5,152.5 Z M 49.5,160.5 C 61.1857,160.168 72.8523,160.501 84.5,161.5C 86.483,163.984 88.6496,166.317 91,168.5C 91.4994,173.64 89.666,177.807 85.5,181C 80.7579,183.198 75.9246,185.032 71,186.5C 70.6667,186.167 70.3333,185.833 70,185.5C 65.0146,189.821 59.5146,193.321 53.5,196C 52.7894,197.255 51.956,198.421 51,199.5C 49.538,186.599 49.038,173.599 49.5,160.5 Z M 159.5,181.5 C 160.613,182.946 160.78,184.613 160,186.5C 153.488,185.078 147.822,182.078 143,177.5C 138.975,171.321 139.808,165.988 145.5,161.5C 151.054,160.194 156.554,160.194 162,161.5C 161.623,168.418 160.79,175.085 159.5,181.5 Z M 101.5,176.5 C 99.6214,176.393 99.2881,176.893 100.5,178C 101.793,178.49 103.127,178.657 104.5,178.5C 104.5,178.167 104.5,177.833 104.5,177.5C 113.058,179.341 121.392,178.675 129.5,175.5C 130.877,177.289 131.877,179.289 132.5,181.5C 126.853,183.547 121.353,185.88 116,188.5C 109.48,186.226 103.313,183.392 97.5,180C 98.0779,178.189 98.5779,176.355 99,174.5C 99.9947,175.066 100.828,175.733 101.5,176.5 Z"/></g>
<g><path style="opacity:0.004" fill="#000000" d="M 168.5,134.5 C 167.833,133.167 167.833,133.167 168.5,134.5 Z"/></g>
<g><path style="opacity:0.367" fill="#6b6b6b" d="M 68.5,102.5 C 91.8429,102.167 115.176,102.5 138.5,103.5C 126.833,103.833 115.167,104.167 103.5,104.5C 91.4803,104.499 79.8137,103.832 68.5,102.5 Z"/></g>
<g><path style="opacity:0.998" fill="#181818" d="M 137.5,118.5 C 140.703,118.682 142.536,120.348 143,123.5C 142.709,137.249 137.209,148.416 126.5,157C 122.137,157.802 120.304,155.968 121,151.5C 125.451,146.222 129.284,140.556 132.5,134.5C 132.167,133.833 131.833,133.167 131.5,132.5C 131.846,131.304 132.346,131.304 133,132.5C 134.456,128.985 134.622,125.485 133.5,122C 134.731,120.595 136.064,119.429 137.5,118.5 Z"/></g>
<g><path style="opacity:0.004" fill="#000000" d="M 355.5,149.5 C 356.573,150.251 356.74,151.251 356,152.5C 355.517,151.552 355.351,150.552 355.5,149.5 Z"/></g>
<g><path style="opacity:0.004" fill="#000000" d="M 507.5,150.5 C 506.833,149.167 506.833,149.167 507.5,150.5 Z"/></g>
<g><path style="opacity:0.024" fill="#bfbfbf" d="M 160.5,151.5 C 156.906,152.797 153.906,152.797 151.5,151.5C 154.324,151.108 157.324,151.108 160.5,151.5 Z"/></g>
<g><path style="opacity:0.157" fill="#a8a8a8" d="M 597.5,153.5 C 597.938,153.435 598.272,153.601 598.5,154C 597.901,155.622 597.234,157.122 596.5,158.5C 596.216,156.585 596.549,154.919 597.5,153.5 Z"/></g>
<g><path style="opacity:0.004" fill="#000000" d="M 378.5,159.5 C 378.897,158.475 379.563,158.308 380.5,159C 379.906,159.464 379.239,159.631 378.5,159.5 Z"/></g>
<g><path style="opacity:0.004" fill="#000000" d="M 503.5,160.5 C 502.833,159.167 502.833,159.167 503.5,160.5 Z"/></g>
<g><path style="opacity:0.004" fill="#000000" d="M 732.5,160.5 C 733.833,161.167 733.833,161.167 732.5,160.5 Z"/></g>
<g><path style="opacity:0.19" fill="#aaa9aa" d="M 596.5,160.5 C 596.938,160.435 597.272,160.601 597.5,161C 596.867,164.367 595.867,167.534 594.5,170.5C 594.753,166.96 595.419,163.627 596.5,160.5 Z"/></g>
<g><path style="opacity:0.006" fill="#000000" d="M 546.5,163.5 C 547.947,164.134 548.613,165.301 548.5,167C 548.204,168.888 547.704,170.722 547,172.5C 546.502,169.518 546.335,166.518 546.5,163.5 Z"/></g>
<g><path style="opacity:0.131" fill="#878787" d="M 452.5,165.5 C 453.343,167.487 454.01,169.654 454.5,172C 454.43,172.765 454.097,173.265 453.5,173.5C 452.735,170.904 452.401,168.237 452.5,165.5 Z"/></g>
<g><path style="opacity:0.082" fill="#9a9a9a" d="M 75.5,170.5 C 68.9779,170.823 62.6446,170.49 56.5,169.5C 60.3745,169.644 64.2079,169.31 68,168.5C 70.7082,168.867 73.2082,169.534 75.5,170.5 Z"/></g>
<g><path style="opacity:0.161" fill="#8c8c8c" d="M 76.5,170.5 C 78.345,171.995 78.6783,173.662 77.5,175.5C 76.962,173.883 76.6287,172.216 76.5,170.5 Z"/></g>
<g><path style="opacity:0.991" fill="#111111" d="M 56.5,169.5 C 62.6446,170.49 68.9779,170.823 75.5,170.5C 75.8333,170.5 76.1667,170.5 76.5,170.5C 76.6287,172.216 76.962,173.883 77.5,175.5C 77.2914,176.922 76.7914,178.255 76,179.5C 69.1975,178.816 62.3642,178.149 55.5,177.5C 54.0944,178.668 52.9277,178.335 52,176.5C 51.3333,174.167 51.3333,171.833 52,169.5C 53.4318,171.931 54.9318,171.931 56.5,169.5 Z"/></g>
<g><path style="opacity:0.991" fill="#101010" d="M 179.5,194.5 C 179.44,195.043 179.107,195.376 178.5,195.5C 177.087,193.632 175.92,191.632 175,189.5C 174.667,189.833 174.333,190.167 174,190.5C 173.333,188.167 173.333,185.833 174,183.5C 174.333,184.833 174.667,186.167 175,187.5C 175.17,181.804 175.67,176.138 176.5,170.5C 178.644,169.047 180.477,169.38 182,171.5C 182.831,178.524 182.664,185.524 181.5,192.5C 180.818,193.243 180.151,193.909 179.5,194.5 Z"/></g>
<g><path style="opacity:0.005" fill="#000000" d="M 101.5,176.5 C 102.209,177.404 103.209,177.737 104.5,177.5C 104.5,177.833 104.5,178.167 104.5,178.5C 103.127,178.657 101.793,178.49 100.5,178C 99.2881,176.893 99.6214,176.393 101.5,176.5 Z"/></g>
<g><path style="opacity:0.863" fill="#6c6c6c" d="M 187.5,182.5 C 188.309,183.469 189.309,184.302 190.5,185C 189.151,185.772 188.318,186.939 188,188.5C 187.505,186.527 187.338,184.527 187.5,182.5 Z"/></g>
<g><path style="opacity:0.004" fill="#000000" d="M 89.5,190.5 C 88.8333,191.167 88.8333,191.167 89.5,190.5 Z"/></g>
<g><path style="opacity:0.523" fill="#212121" d="M 310.5,194.5 C 313.972,195.121 317.305,195.454 320.5,195.5C 321.664,201.472 321.83,207.472 321,213.5C 320.248,216.834 318.081,218.501 314.5,218.5C 312.234,218.069 310.734,216.736 310,214.5C 309.208,207.753 309.374,201.086 310.5,194.5 Z M 315.5,197.5 C 316.163,199.641 316.497,201.975 316.5,204.5C 316.614,207.364 316.114,210.03 315,212.5C 314.337,207.463 314.504,202.463 315.5,197.5 Z"/></g>
<g><path style="opacity:0.568" fill="#242424" d="M 385.5,217.5 C 384.933,215.302 384.933,212.969 385.5,210.5C 386.358,207.95 387.358,205.45 388.5,203C 387.2,201.306 385.533,199.306 383.5,197C 384.333,196.167 385.167,195.333 386,194.5C 388.333,195.833 390.667,195.833 393,194.5C 394.397,195.226 395.231,196.393 395.5,198C 394.258,202.652 392.592,207.152 390.5,211.5C 394.552,211.707 396.052,213.707 395,217.5C 391.731,218.818 388.565,218.818 385.5,217.5 Z"/></g>
<g><path style="opacity:0.55" fill="#262626" d="M 409.5,199.5 C 409.433,198.041 409.766,196.708 410.5,195.5C 412.799,195.668 415.299,195.334 418,194.5C 418.956,195.579 419.789,196.745 420.5,198C 418.892,202.819 416.892,207.486 414.5,212C 419.803,211.977 421.136,213.977 418.5,218C 415.438,218.741 412.438,218.575 409.5,217.5C 408.369,215.926 408.202,214.259 409,212.5C 410.029,209.61 411.195,206.776 412.5,204C 412.101,202.019 411.101,200.519 409.5,199.5 Z"/></g>
<g><path style="opacity:0.617" fill="#202020" d="M 502.5,194.5 C 503.93,194.421 505.264,194.754 506.5,195.5C 507.664,218.137 508.497,218.137 509,195.5C 510.333,194.167 511.667,194.167 513,195.5C 513.667,202.167 513.667,208.833 513,215.5C 509.94,218.936 506.607,219.269 503,216.5C 502.813,209.919 502.313,203.419 501.5,197C 502.252,196.329 502.586,195.496 502.5,194.5 Z"/></g>
<g><path style="opacity:0.572" fill="#161616" d="M 528.5,194.5 C 529.822,194.33 530.989,194.663 532,195.5C 532.499,201.157 532.666,206.824 532.5,212.5C 536.677,211.842 538.177,213.508 537,217.5C 534,218.833 531,218.833 528,217.5C 527.202,209.754 527.369,202.087 528.5,194.5 Z"/></g>
<g><path style="opacity:0.67" fill="#232323" d="M 618.5,194.5 C 619.496,194.414 620.329,194.748 621,195.5C 622.332,204.677 623.832,204.677 625.5,195.5C 626.72,194.289 627.887,194.289 629,195.5C 628.997,202.2 628.33,208.866 627,215.5C 622.549,219.903 619.882,218.903 619,212.5C 618.213,207.49 617.38,202.49 616.5,197.5C 616.942,196.261 617.609,195.261 618.5,194.5 Z"/></g>
<g><path style="opacity:0.61" fill="#1d1d1d" d="M 288.5,194.5 C 294.931,194.862 296.931,198.029 294.5,204C 292.633,204.711 291.133,204.211 290,202.5C 289.333,205.167 289.333,207.833 290,210.5C 293.235,206.205 295.069,206.705 295.5,212C 293.879,218.726 290.379,219.892 285,215.5C 284.333,209.5 284.333,203.5 285,197.5C 286.145,196.364 287.312,195.364 288.5,194.5 Z"/></g>
<g><path style="opacity:0.53" fill="#171717" d="M 361.5,194.5 C 364.041,195.649 366.541,195.649 369,194.5C 372.403,198.684 371.236,200.684 365.5,200.5C 365.5,201.5 365.5,202.5 365.5,203.5C 368.91,203.384 370.244,205.05 369.5,208.5C 368.167,208.5 366.833,208.5 365.5,208.5C 365.5,209.833 365.5,211.167 365.5,212.5C 370.277,211.908 371.777,213.575 370,217.5C 367,218.833 364,218.833 361,217.5C 360.202,209.754 360.369,202.087 361.5,194.5 Z"/></g>
<g><path style="opacity:0.606" fill="#212121" d="M 646.5,194.5 C 649.505,194.253 652.005,195.253 654,197.5C 654.667,203.167 654.667,208.833 654,214.5C 650.333,219.833 646.667,219.833 643,214.5C 642.333,209.167 642.333,203.833 643,198.5C 643.69,196.65 644.856,195.316 646.5,194.5 Z M 648.5,200.5 C 649.645,204.311 649.812,208.311 649,212.5C 647.176,208.561 647.009,204.561 648.5,200.5 Z"/></g>
<g><path style="opacity:0.699" fill="#202020" d="M 669.5,194.5 C 671.339,195.752 673.172,195.752 675,194.5C 676.085,195.293 677.252,195.96 678.5,196.5C 679.332,202.315 679.999,208.148 680.5,214C 679.697,218.6 677.531,219.433 674,216.5C 672.445,218.146 670.779,218.479 669,217.5C 668.814,210.586 668.314,203.753 667.5,197C 668.381,196.292 669.047,195.458 669.5,194.5 Z"/></g>
<g><path style="opacity:0.067" fill="#b0b0b0" d="M 410.5,195.5 C 409.766,196.708 409.433,198.041 409.5,199.5C 408.876,199.083 408.543,198.416 408.5,197.5C 408.747,196.287 409.414,195.62 410.5,195.5 Z"/></g>
<g><path style="opacity:0.004" fill="#000000" d="M 68.5,198.5 C 68.8333,198.5 69.1667,198.5 69.5,198.5C 69.3147,199.17 68.9813,199.17 68.5,198.5 Z"/></g>
<g><path style="opacity:0.004" fill="#000000" d="M 525.5,198.5 C 526.525,198.897 526.692,199.563 526,200.5C 525.536,199.906 525.369,199.239 525.5,198.5 Z"/></g>
<g><path style="opacity:0.617" fill="#131313" d="M 601.5,217.5 C 600.766,216.292 600.433,214.959 600.5,213.5C 598.599,213.246 597.933,213.58 598.5,214.5C 598.5,215.833 597.833,216.5 596.5,216.5C 595.153,215.829 593.986,215.829 593,216.5C 592.517,215.552 592.351,214.552 592.5,213.5C 592.5,212.5 592.5,211.5 592.5,210.5C 594.265,207.877 594.932,204.877 594.5,201.5C 593.881,195.47 596.047,193.47 601,195.5C 603.032,202.72 604.032,210.053 604,217.5C 603.023,218.774 602.189,218.774 601.5,217.5 Z"/></g>
<g><path style="opacity:0.893" fill="#1f1f1f" d="M 696.5,194.5 C 701.4,193.948 704.734,195.948 706.5,200.5C 705.721,205.113 705.221,209.78 705,214.5C 701.28,219.638 697.613,219.638 694,214.5C 693.333,209.167 693.333,203.833 694,198.5C 694.662,197.016 695.496,195.683 696.5,194.5 Z M 699.5,199.5 C 700.811,203.683 700.811,208.016 699.5,212.5C 698.366,208.169 698.366,203.836 699.5,199.5 Z"/></g>
<g><path style="opacity:0.004" fill="#000000" d="M 63.5,201.5 C 63.8333,201.5 64.1667,201.5 64.5,201.5C 64.3147,202.17 63.9813,202.17 63.5,201.5 Z"/></g>
<g><path style="opacity:0.004" fill="#000000" d="M 121.5,201.5 C 122.833,202.167 122.833,202.167 121.5,201.5 Z"/></g>
<g><path style="opacity:0.004" fill="#000000" d="M 366.5,201.5 C 367.833,202.167 367.833,202.167 366.5,201.5 Z"/></g>
<g><path style="opacity:0.556" fill="#181818" d="M 570.5,194.5 C 571.496,194.414 572.329,194.748 573,195.5C 573.499,201.157 573.666,206.824 573.5,212.5C 578.667,211.492 580.334,213.325 578.5,218C 575.438,218.741 572.438,218.575 569.5,217.5C 567.924,209.585 568.257,201.919 570.5,194.5 Z"/></g>
<g><path style="opacity:0.717" fill="#222222" d="M 437.5,194.5 C 438.473,195.791 439.473,195.791 440.5,194.5C 441.478,194.977 442.311,195.643 443,196.5C 443.845,203.238 445.012,209.904 446.5,216.5C 443.428,219.153 441.095,218.487 439.5,214.5C 437.611,217.992 435.278,218.659 432.5,216.5C 433.772,209.869 434.939,203.202 436,196.5C 436.717,195.956 437.217,195.289 437.5,194.5 Z"/></g>
<g><path style="opacity:0.106" fill="#999999" d="M 594.5,201.5 C 594.932,204.877 594.265,207.877 592.5,210.5C 592.858,207.311 593.525,204.311 594.5,201.5 Z"/></g>
<g><path style="opacity:0.869" fill="#2e2e2e" d="M 266.5,194.5 C 267.583,194.539 268.583,194.873 269.5,195.5C 270.833,202.833 270.833,210.167 269.5,217.5C 268.28,218.711 267.113,218.711 266,217.5C 265.202,209.754 265.369,202.087 266.5,194.5 Z"/></g>
<g><path style="opacity:0.573" fill="#1b1b1b" d="M 346.5,214.5 C 346.443,215.609 346.11,216.609 345.5,217.5C 344.458,218.791 343.292,218.791 342,217.5C 341.488,206.894 340.655,206.894 339.5,217.5C 337.958,218.747 336.458,218.747 335,217.5C 335.737,210.639 335.571,203.806 334.5,197C 335.047,196.075 335.713,195.242 336.5,194.5C 338.371,195.767 340.204,195.767 342,194.5C 343.512,195.257 344.846,196.257 346,197.5C 345.472,203.204 345.639,208.871 346.5,214.5 Z"/></g>
<g><path style="opacity:0.004" fill="#000000" d="M 56.5,206.5 C 57.8333,207.167 57.8333,207.167 56.5,206.5 Z"/></g>
<g><path style="opacity:0.973" fill="#121212" d="M 52.5,233.5 C 50.8325,231.521 50.1658,229.188 50.5,226.5C 51.6909,222.418 53.1909,218.418 55,214.5C 58.8246,211.675 62.3246,208.508 65.5,205C 69.595,204.117 73.595,202.95 77.5,201.5C 82.1846,201.893 83.518,204.227 81.5,208.5C 69.9194,213.08 61.586,221.08 56.5,232.5C 55.3112,233.429 53.9778,233.762 52.5,233.5 Z"/></g>
<g><path style="opacity:0.286" fill="#838383" d="M 485.5,205.5 C 486.906,205.973 487.573,206.973 487.5,208.5C 486.094,208.027 485.427,207.027 485.5,205.5 Z"/></g>
<g><path style="opacity:0.666" fill="#1d1d1d" d="M 244.5,194.5 C 249.697,194.695 252.03,197.362 251.5,202.5C 249.801,202.34 248.134,202.506 246.5,203C 250.966,206.099 252.466,210.265 251,215.5C 247.751,219.367 244.418,219.367 241,215.5C 240.542,209.521 240.542,203.521 241,197.5C 241.985,196.186 243.152,195.186 244.5,194.5 Z"/></g>
<g><path style="opacity:0.004" fill="#000000" d="M 54.5,208.5 C 55.8333,209.167 55.8333,209.167 54.5,208.5 Z"/></g>
<g><path style="opacity:0.243" fill="#878787" d="M 477.5,210.5 C 478.568,209.566 479.901,209.232 481.5,209.5C 481.5,210.167 481.5,210.833 481.5,211.5C 480.292,210.766 478.959,210.433 477.5,210.5 Z"/></g>
<g><path style="opacity:0.659" fill="#1f1f1f" d="M 485.5,205.5 C 485.427,207.027 486.094,208.027 487.5,208.5C 489.802,213.464 488.302,216.797 483,218.5C 478.338,217.461 476.505,214.795 477.5,210.5C 478.959,210.433 480.292,210.766 481.5,211.5C 484.187,212.061 484.187,211.394 481.5,209.5C 477.324,205.69 476.324,201.356 478.5,196.5C 484.884,193.36 488.217,195.36 488.5,202.5C 486.801,202.34 485.134,202.506 483.5,203C 484.381,203.708 485.047,204.542 485.5,205.5 Z"/></g>
<g><path style="opacity:0.009" fill="#e5e5e5" d="M 346.5,214.5 C 347.885,215.947 347.552,216.947 345.5,217.5C 346.11,216.609 346.443,215.609 346.5,214.5 Z"/></g>
<g><path style="opacity:0.224" fill="#aaaaaa" d="M 601.5,217.5 C 600.1,216.9 599.1,215.9 598.5,214.5C 597.933,213.58 598.599,213.246 600.5,213.5C 600.433,214.959 600.766,216.292 601.5,217.5 Z"/></g>
<g><path style="opacity:0.031" fill="#999999" d="M 385.5,210.5 C 384.933,212.969 384.933,215.302 385.5,217.5C 384.414,217.38 383.747,216.713 383.5,215.5C 383.801,213.578 384.467,211.912 385.5,210.5 Z"/></g>
<g><path style="opacity:0.688" fill="#676767" d="M 592.5,213.5 C 592.351,214.552 592.517,215.552 593,216.5C 593.986,215.829 595.153,215.829 596.5,216.5C 595.365,218.088 594.031,218.421 592.5,217.5C 591.218,216.042 591.218,214.708 592.5,213.5 Z"/></g>
<g><path style="opacity:0.992" fill="#191919" d="M 160.5,245.5 C 159.673,244.561 159.006,244.895 158.5,246.5C 150.533,249.787 143.033,248.787 136,243.5C 135.626,242.584 135.126,241.75 134.5,241C 135.639,235.584 135.806,230.084 135,224.5C 134.667,224.833 134.333,225.167 134,225.5C 133.333,223.167 133.333,220.833 134,218.5C 134.333,218.833 134.667,219.167 135,219.5C 135.374,218.584 135.874,217.75 136.5,217C 145.167,216.333 153.833,216.333 162.5,217C 163.416,217.374 164.25,217.874 165,218.5C 165.667,226.833 165.667,235.167 165,243.5C 163.89,245.037 162.39,245.703 160.5,245.5 Z M 149.5,225.5 C 152.044,225.104 154.211,225.771 156,227.5C 156.333,226.833 156.667,226.167 157,225.5C 157.667,229.5 157.667,233.5 157,237.5C 146.263,242.848 141.763,239.514 143.5,227.5C 145.898,227.741 147.898,227.074 149.5,225.5 Z"/></g>
<g><path style="opacity:0.02" fill="#9c9c9c" d="M 50.5,226.5 C 50.1658,229.188 50.8325,231.521 52.5,233.5C 51.5041,233.586 50.6708,233.252 50,232.5C 49.2109,230.288 49.3775,228.288 50.5,226.5 Z"/></g>
<g><path style="opacity:0.012" fill="#c4c4c4" d="M 31.5,233.5 C 32.5,233.833 33.1667,234.5 33.5,235.5C 32.1667,235.5 31.5,234.833 31.5,233.5 Z"/></g>
<g><path style="opacity:0.004" fill="#d2d2d2" d="M 160.5,245.5 C 160.158,246.338 159.492,246.672 158.5,246.5C 159.006,244.895 159.673,244.561 160.5,245.5 Z"/></g>
<g><path style="opacity:0.031" fill="#adadad" d="M 118.5,246.5 C 118.5,247.833 117.833,248.5 116.5,248.5C 116.833,247.5 117.5,246.833 118.5,246.5 Z"/></g>
</svg>
